<svg width="1024" height="1024" viewBox="0 0 1024 1024" fill="none" xmlns="http://www.w3.org/2000/svg">
<path d="M545 793.6H243.8C232.8 793.6 223.8 784.6 223.8 773.6V250.4C223.8 239.4 232.8 230.4 243.8 230.4H676.2C687.2 230.4 696.2 239.4 696.2 250.4V382.2C696.2 393.2 705.2 402.2 716.2 402.2C727.2 402.2 736.2 393.2 736.2 382.2V250.4C736.2 217.3 709.3 190.4 676.2 190.4H243.8C210.7 190.4 183.8 217.3 183.8 250.4V773.6C183.8 806.7 210.7 833.6 243.8 833.6H545C556 833.6 565 824.6 565 813.6C565 802.6 556.1 793.6 545 793.6Z" fill="#474747"/>
<path d="M834.6 789.8L745.8 698.1C769.2 669.4 783.3 632.7 783.3 592.8C783.3 500.7 708.4 425.8 616.3 425.8C524.2 425.8 449.3 500.7 449.3 592.8C449.3 684.9 524.2 759.8 616.3 759.8C654.1 759.8 689 747.2 717 725.9L806 817.7C809.9 821.7 815.1 823.7 820.3 823.7C825.3 823.7 830.4 821.8 834.3 818C842.1 810.4 842.3 797.7 834.6 789.8ZM616.2 719.9C546.2 719.9 489.2 662.9 489.2 592.9C489.2 522.9 546.2 465.9 616.2 465.9C686.2 465.9 743.2 522.9 743.2 592.9C743.2 662.9 686.2 719.9 616.2 719.9ZM565 382.2C565 371.2 556 362.2 545 362.2H308.7C297.7 362.2 288.7 371.2 288.7 382.2C288.7 393.2 297.7 402.2 308.7 402.2H545C556.1 402.2 565 393.2 565 382.2ZM443.5 493.5C443.5 482.5 434.5 473.5 423.5 473.5H308.7C297.7 473.5 288.7 482.5 288.7 493.5C288.7 504.5 297.7 513.5 308.7 513.5H423.5C434.6 513.5 443.5 504.6 443.5 493.5ZM308.7 584.8C297.7 584.8 288.7 593.8 288.7 604.8C288.7 615.8 297.7 624.8 308.7 624.8H370.4C381.4 624.8 390.4 615.8 390.4 604.8C390.4 593.8 381.4 584.8 370.4 584.8H308.7Z" fill="#474747"/>
</svg>
